<svg width="33" height="33" viewBox="0 0 33 33" fill="none" xmlns="http://www.w3.org/2000/svg">
<path d="M27.384 22.8312L23.384 26.8312C23.1921 27.0147 22.9371 27.1176 22.6715 27.1187C22.5388 27.1181 22.4074 27.0927 22.284 27.0437C22.102 26.9672 21.9467 26.8386 21.8377 26.674C21.7287 26.5093 21.6709 26.3162 21.6715 26.1187V23.1187H6.67152C6.4063 23.1187 6.15195 23.0134 5.96441 22.8258C5.77688 22.6383 5.67152 22.3839 5.67152 22.1187C5.67152 21.8535 5.77688 21.5992 5.96441 21.4116C6.15195 21.2241 6.4063 21.1187 6.67152 21.1187H21.6715V18.1187C21.6709 17.9213 21.7287 17.7281 21.8377 17.5635C21.9467 17.3989 22.102 17.2702 22.284 17.1937C22.4687 17.1217 22.6701 17.1034 22.8647 17.141C23.0594 17.1786 23.2394 17.2706 23.384 17.4062L27.384 21.4062C27.5718 21.5958 27.6771 21.8519 27.6771 22.1187C27.6771 22.3856 27.5718 22.6416 27.384 22.8312V22.8312ZM9.95902 14.8312C10.151 15.0147 10.406 15.1176 10.6715 15.1187C10.8042 15.1181 10.9357 15.0927 11.059 15.0437C11.241 14.9672 11.3963 14.8386 11.5053 14.674C11.6143 14.5093 11.6721 14.3162 11.6715 14.1187V11.1187H26.6715C26.9367 11.1187 27.1911 11.0134 27.3786 10.8258C27.5662 10.6383 27.6715 10.3839 27.6715 10.1187C27.6715 9.85351 27.5662 9.59916 27.3786 9.41162C27.1911 9.22408 26.9367 9.11873 26.6715 9.11873H11.6715V6.11873C11.6721 5.9213 11.6143 5.72811 11.5053 5.5635C11.3963 5.39889 11.241 5.27023 11.059 5.19373C10.8743 5.12168 10.673 5.1034 10.4783 5.14101C10.2836 5.17862 10.1036 5.27057 9.95902 5.40623L5.95902 9.40623C5.77124 9.59582 5.66589 9.85188 5.66589 10.1187C5.66589 10.3856 5.77124 10.6416 5.95902 10.8312L9.95902 14.8312Z" fill="currentColor"/>
</svg>
