<svg width="33" height="33" viewBox="0 0 33 33" fill="none" xmlns="http://www.w3.org/2000/svg">
<path d="M28.558 20.0376L22.6955 17.5376C22.393 17.402 22.0609 17.3458 21.7307 17.3742C21.4004 17.4026 21.0828 17.5148 20.808 17.7001L17.6705 19.7876C15.7583 18.8588 14.2101 17.3194 13.2705 15.4126V15.4126L15.3455 12.2376C15.5295 11.9624 15.6419 11.6456 15.6725 11.316C15.7031 10.9864 15.6508 10.6544 15.5205 10.3501L13.008 4.48756C12.8327 4.0917 12.5358 3.76198 12.1605 3.54621C11.7851 3.33044 11.3508 3.23985 10.9205 3.28756C9.23247 3.50869 7.6822 4.33527 6.55789 5.61363C5.43358 6.89199 4.81174 8.53513 4.80798 10.2376C4.80798 20.1626 12.883 28.2376 22.808 28.2376C24.5104 28.2338 26.1536 27.612 27.4319 26.4877C28.7103 25.3633 29.5369 23.8131 29.758 22.1251C29.8057 21.6948 29.7151 21.2604 29.4993 20.8851C29.2836 20.5097 28.9538 20.2129 28.558 20.0376Z" fill="currentColor"/>
</svg>
