<svg width="33" height="33" viewBox="0 0 33 33" fill="none" xmlns="http://www.w3.org/2000/svg">
<path d="M4.67151 23.1188C4.40629 23.1188 4.15194 23.2241 3.9644 23.4117C3.77687 23.5992 3.67151 23.8536 3.67151 24.1188C3.67151 24.384 3.77687 24.6383 3.9644 24.8259C4.15194 25.0134 4.40629 25.1188 4.67151 25.1188C4.93673 25.1188 5.19108 25.2241 5.37862 25.4117C5.56615 25.5992 5.67151 25.8536 5.67151 26.1188C5.67151 26.384 5.77687 26.6383 5.9644 26.8259C6.15194 27.0134 6.40629 27.1188 6.67151 27.1188C6.93673 27.1188 7.19108 27.0134 7.37862 26.8259C7.56615 26.6383 7.67151 26.384 7.67151 26.1188C7.66822 25.3241 7.35109 24.563 6.78919 24.0011C6.2273 23.4392 5.46614 23.1221 4.67151 23.1188Z" fill="currentColor"/>
<path d="M4.67151 19.1188C4.40629 19.1188 4.15194 19.2241 3.9644 19.4117C3.77687 19.5992 3.67151 19.8536 3.67151 20.1188C3.67151 20.384 3.77687 20.6383 3.9644 20.8259C4.15194 21.0134 4.40629 21.1188 4.67151 21.1188C5.99759 21.1188 7.26936 21.6456 8.20704 22.5832C9.14472 23.5209 9.67151 24.7927 9.67151 26.1188C9.67151 26.384 9.77687 26.6383 9.9644 26.8259C10.1519 27.0134 10.4063 27.1188 10.6715 27.1188C10.9367 27.1188 11.1911 27.0134 11.3786 26.8259C11.5662 26.6383 11.6715 26.384 11.6715 26.1188C11.6715 24.2623 10.934 22.4818 9.62126 21.169C8.3085 19.8563 6.52802 19.1188 4.67151 19.1188Z" fill="currentColor"/>
<path d="M4.67151 15.1188C4.40629 15.1188 4.15194 15.2241 3.9644 15.4117C3.77687 15.5992 3.67151 15.8536 3.67151 16.1188C3.67151 16.384 3.77687 16.6383 3.9644 16.8259C4.15194 17.0134 4.40629 17.1188 4.67151 17.1188C7.05744 17.1221 9.34471 18.0714 11.0318 19.7585C12.7189 21.4456 13.6682 23.7328 13.6715 26.1188C13.6715 26.384 13.7769 26.6383 13.9644 26.8259C14.1519 27.0134 14.4063 27.1188 14.6715 27.1188C14.9367 27.1188 15.1911 27.0134 15.3786 26.8259C15.5662 26.6383 15.6715 26.384 15.6715 26.1188C15.6682 23.2024 14.5082 20.4064 12.446 18.3443C10.3838 16.2821 7.58787 15.1221 4.67151 15.1188V15.1188Z" fill="currentColor"/>
<path d="M27.6715 5.11877H5.67151C5.14108 5.11877 4.63237 5.32949 4.2573 5.70456C3.88222 6.07963 3.67151 6.58834 3.67151 7.11877V12.1188C3.67151 12.384 3.77687 12.6383 3.9644 12.8259C4.15194 13.0134 4.40629 13.1188 4.67151 13.1188C8.11729 13.1254 11.4201 14.4971 13.8566 16.9337C16.2931 19.3702 17.6649 22.673 17.6715 26.1188C17.6715 26.384 17.7769 26.6383 17.9644 26.8259C18.1519 27.0134 18.4063 27.1188 18.6715 27.1188H27.6715C28.2019 27.1188 28.7106 26.9081 29.0857 26.533C29.4608 26.1579 29.6715 25.6492 29.6715 25.1188V7.11877C29.6715 6.58834 29.4608 6.07963 29.0857 5.70456C28.7106 5.32949 28.2019 5.11877 27.6715 5.11877V5.11877Z" fill="currentColor"/>
</svg>
