<svg width="33" height="33" viewBox="0 0 33 33" fill="none" xmlns="http://www.w3.org/2000/svg">
<path d="M30.5806 12.65C30.4554 12.2562 30.2142 11.9094 29.8885 11.6551C29.5629 11.4009 29.168 11.2509 28.7556 11.225L21.3306 10.7125L18.5806 3.77498C18.4304 3.39298 18.1691 3.06486 17.8303 2.83308C17.4916 2.60131 17.091 2.47655 16.6806 2.47498V2.47498C16.2701 2.47655 15.8696 2.60131 15.5309 2.83308C15.1921 3.06486 14.9307 3.39298 14.7806 3.77498L11.9806 10.75L4.60559 11.225C4.19372 11.2526 3.79961 11.4032 3.47425 11.6572C3.14889 11.9113 2.90725 12.2571 2.78059 12.65C2.65051 13.0489 2.64291 13.4776 2.75877 13.8809C2.87462 14.2841 3.10862 14.6434 3.43059 14.9125L9.10559 19.7125L7.41809 26.35C7.30133 26.799 7.32234 27.2728 7.47839 27.7097C7.63443 28.1466 7.9183 28.5265 8.29309 28.8C8.65688 29.0611 9.0903 29.2077 9.53789 29.221C9.98548 29.2344 10.4269 29.1139 10.8056 28.875L16.6681 25.1625H16.6931L23.0056 29.15C23.3294 29.3604 23.7069 29.4732 24.0931 29.475C24.4084 29.4725 24.7189 29.3978 25.0009 29.2565C25.2828 29.1152 25.5285 28.9112 25.7193 28.6601C25.91 28.409 26.0406 28.1175 26.1011 27.8081C26.1616 27.4986 26.1503 27.1794 26.0681 26.875L24.2806 19.6125L29.9306 14.9125C30.2526 14.6434 30.4866 14.2841 30.6024 13.8809C30.7183 13.4776 30.7107 13.0489 30.5806 12.65Z" fill="currentColor"/>
</svg>
