<svg width="33" height="33" viewBox="0 0 33 33" fill="none" xmlns="http://www.w3.org/2000/svg">
<path d="M16.808 24.7375C21.5024 24.7375 25.308 20.932 25.308 16.2375C25.308 11.5431 21.5024 7.73755 16.808 7.73755C12.1136 7.73755 8.30798 11.5431 8.30798 16.2375C8.30798 20.932 12.1136 24.7375 16.808 24.7375Z" fill="currentColor"/>
<path d="M16.808 5.73755C17.0732 5.73755 17.3276 5.63219 17.5151 5.44466C17.7026 5.25712 17.808 5.00277 17.808 4.73755V2.23755C17.808 1.97233 17.7026 1.71798 17.5151 1.53044C17.3276 1.34291 17.0732 1.23755 16.808 1.23755C16.5428 1.23755 16.2884 1.34291 16.1009 1.53044C15.9133 1.71798 15.808 1.97233 15.808 2.23755V4.73755C15.808 5.00277 15.9133 5.25712 16.1009 5.44466C16.2884 5.63219 16.5428 5.73755 16.808 5.73755Z" fill="currentColor"/>
<path d="M7.97047 8.81254C8.15951 8.99656 8.41291 9.09953 8.67672 9.09953C8.94054 9.09953 9.19394 8.99656 9.38297 8.81254C9.56999 8.62507 9.67501 8.37109 9.67501 8.10629C9.67501 7.84149 9.56999 7.58751 9.38297 7.40004L7.62047 5.62504C7.53081 5.51579 7.41927 5.42653 7.29303 5.36298C7.16679 5.29944 7.02865 5.26303 6.88749 5.2561C6.74633 5.24917 6.60528 5.27187 6.47342 5.32273C6.34156 5.3736 6.22181 5.4515 6.12187 5.55144C6.02194 5.65137 5.94403 5.77112 5.89316 5.90298C5.8423 6.03484 5.8196 6.17589 5.82654 6.31705C5.83347 6.45821 5.86988 6.59636 5.93342 6.7226C5.99696 6.84884 6.08623 6.96038 6.19547 7.05004L7.97047 8.81254Z" fill="currentColor"/>
<path d="M6.30798 16.2375C6.30798 15.9723 6.20263 15.718 6.01509 15.5304C5.82755 15.3429 5.5732 15.2375 5.30798 15.2375H2.80798C2.54277 15.2375 2.28841 15.3429 2.10088 15.5304C1.91334 15.718 1.80798 15.9723 1.80798 16.2375C1.80798 16.5028 1.91334 16.7571 2.10088 16.9447C2.28841 17.1322 2.54277 17.2375 2.80798 17.2375H5.30798C5.5732 17.2375 5.82755 17.1322 6.01509 16.9447C6.20263 16.7571 6.30798 16.5028 6.30798 16.2375Z" fill="currentColor"/>
<path d="M7.97047 23.6625L6.19547 25.425C6.00769 25.6146 5.90234 25.8707 5.90234 26.1375C5.90234 26.4044 6.00769 26.6604 6.19547 26.85C6.38879 27.0314 6.64292 27.1339 6.90797 27.1375C7.17351 27.1364 7.42851 27.0335 7.62047 26.85L9.38297 25.075C9.55533 24.8848 9.64794 24.6356 9.64162 24.379C9.6353 24.1223 9.53054 23.878 9.34903 23.6965C9.16752 23.5149 8.92315 23.4102 8.66653 23.4039C8.40992 23.3975 8.16069 23.4902 7.97047 23.6625V23.6625Z" fill="currentColor"/>
<path d="M16.808 26.7375C16.5428 26.7375 16.2884 26.8429 16.1009 27.0304C15.9133 27.218 15.808 27.4723 15.808 27.7375V30.2375C15.808 30.5028 15.9133 30.7571 16.1009 30.9447C16.2884 31.1322 16.5428 31.2375 16.808 31.2375C17.0732 31.2375 17.3276 31.1322 17.5151 30.9447C17.7026 30.7571 17.808 30.5028 17.808 30.2375V27.7375C17.808 27.4723 17.7026 27.218 17.5151 27.0304C17.3276 26.8429 17.0732 26.7375 16.808 26.7375Z" fill="currentColor"/>
<path d="M25.6455 23.6625C25.4552 23.4902 25.206 23.3975 24.9494 23.4039C24.6928 23.4102 24.4484 23.5149 24.2669 23.6965C24.0854 23.878 23.9806 24.1223 23.9743 24.379C23.968 24.6356 24.0606 24.8848 24.233 25.075L25.9955 26.85C26.1874 27.0335 26.4424 27.1364 26.708 27.1375C26.973 27.1339 27.2271 27.0314 27.4205 26.85C27.6082 26.6604 27.7136 26.4044 27.7136 26.1375C27.7136 25.8707 27.6082 25.6146 27.4205 25.425L25.6455 23.6625Z" fill="currentColor"/>
<path d="M30.808 15.2375H28.308C28.0428 15.2375 27.7884 15.3429 27.6009 15.5304C27.4133 15.718 27.308 15.9723 27.308 16.2375C27.308 16.5028 27.4133 16.7571 27.6009 16.9447C27.7884 17.1322 28.0428 17.2375 28.308 17.2375H30.808C31.0732 17.2375 31.3276 17.1322 31.5151 16.9447C31.7026 16.7571 31.808 16.5028 31.808 16.2375C31.808 15.9723 31.7026 15.718 31.5151 15.5304C31.3276 15.3429 31.0732 15.2375 30.808 15.2375Z" fill="currentColor"/>
<path d="M24.9455 9.10011C25.0754 9.10126 25.2043 9.07641 25.3245 9.02704C25.4447 8.97767 25.5538 8.90476 25.6455 8.81261L27.4205 7.05011C27.5799 6.85581 27.6614 6.60915 27.6491 6.3581C27.6368 6.10704 27.5315 5.86955 27.3537 5.69182C27.176 5.51408 26.9385 5.40881 26.6875 5.39648C26.4364 5.38415 26.1898 5.46565 25.9955 5.62511L24.233 7.40011C24.0459 7.58757 23.9409 7.84156 23.9409 8.10636C23.9409 8.37116 24.0459 8.62514 24.233 8.81261C24.3261 8.90629 24.4372 8.98008 24.5597 9.0295C24.6822 9.07892 24.8134 9.10294 24.9455 9.10011V9.10011Z" fill="currentColor"/>
</svg>
