<svg width="33" height="33" viewBox="0 0 33 33" fill="none" xmlns="http://www.w3.org/2000/svg">
<path d="M29.659 26.6188C27.7931 23.4044 24.8064 20.9919 21.2715 19.8438C22.9659 18.8362 24.2825 17.3003 25.0193 15.4718C25.7561 13.6434 25.8721 11.6236 25.3497 9.72285C24.8272 7.82206 23.6951 6.14537 22.1273 4.95037C20.5596 3.75537 18.6428 3.10815 16.6715 3.10815C14.7002 3.10815 12.7835 3.75537 11.2157 4.95037C9.64789 6.14537 8.51581 7.82206 7.99335 9.72285C7.4709 11.6236 7.58696 13.6434 8.32371 15.4718C9.06047 17.3003 10.3772 18.8362 12.0715 19.8438C8.53663 20.9919 5.54992 23.4044 3.68401 26.6188C3.5924 26.7695 3.54395 26.9424 3.54395 27.1188C3.54395 27.2951 3.5924 27.4681 3.68401 27.6188C3.76948 27.772 3.89472 27.8994 4.04652 27.9874C4.19832 28.0754 4.37105 28.1208 4.54651 28.1188H28.7965C28.972 28.1208 29.1447 28.0754 29.2965 27.9874C29.4483 27.8994 29.5735 27.772 29.659 27.6188C29.7506 27.4681 29.7991 27.2951 29.7991 27.1188C29.7991 26.9424 29.7506 26.7695 29.659 26.6188V26.6188Z" fill="currentColor"/>
</svg>
