
<svg height="16" viewBox="0 0 52 18" fill="none" xmlns="http://www.w3.org/2000/svg" aria-labelledby="uber-logo-title"><title id="uber-logo-title">Uber undefined</title><path d="M2.696 10.568V0.199999H0.176V10.712C0.176 14.672 2.936 17.288 6.536 17.288C8.288 17.288 9.848 16.616 10.976 15.44V17H13.472V0.199999H10.952V10.568C10.952 13.232 9.152 15.032 6.824 15.032C4.472 15.032 2.696 13.28 2.696 10.568ZM15.9494 17H18.3494V15.464C19.4534 16.592 21.0134 17.288 22.7174 17.288C26.3174 17.288 29.1494 14.432 29.1494 10.904C29.1494 7.352 26.3174 4.496 22.7174 4.496C21.0134 4.496 19.4774 5.192 18.3734 6.32V0.199999H15.9494V17ZM18.3254 10.904C18.3254 8.528 20.2214 6.656 22.5494 6.656C24.8534 6.656 26.7494 8.528 26.7494 10.904C26.7494 13.256 24.8534 15.152 22.5494 15.152C20.1974 15.152 18.3254 13.256 18.3254 10.904ZM30.5872 10.88C30.5872 14.528 33.4192 17.264 37.0912 17.264C39.3232 17.264 41.1472 16.28 42.3712 14.648L40.6192 13.352C39.7072 14.576 38.5072 15.152 37.0912 15.152C35.0272 15.152 33.3712 13.664 33.0352 11.672H42.9952V10.88C42.9952 7.232 40.4032 4.52 36.8752 4.52C33.2992 4.52 30.5872 7.424 30.5872 10.88ZM36.8272 6.632C38.6272 6.632 40.1392 7.88 40.5472 9.752H33.0832C33.5152 7.88 35.0272 6.632 36.8272 6.632ZM51.0628 6.92V4.664H50.2228C48.8788 4.664 47.8948 5.288 47.2948 6.272V4.76H44.8948V17H47.3188V10.04C47.3188 8.144 48.4708 6.92 50.0547 6.92H51.0628Z" fill="currentColor"></path></svg>